<mxfile host="app.diagrams.net" modified="2024-06-22T21:58:17.277Z" agent="Mozilla/5.0 (Windows NT 10.0; Win64; x64) AppleWebKit/537.36 (KHTML, like Gecko) Chrome/126.0.0.0 Safari/537.36" etag="dSfSrJRtfGJnTmQv70vg" version="24.6.2" type="device">
  <diagram name="Page-1" id="xFJ_-Iz3tIouPLp9QWYX">
    <mxGraphModel dx="1434" dy="788" grid="1" gridSize="10" guides="1" tooltips="1" connect="1" arrows="1" fold="1" page="1" pageScale="1" pageWidth="850" pageHeight="1100" math="0" shadow="0">
      <root>
        <mxCell id="0" />
        <mxCell id="1" parent="0" />
        <mxCell id="W48W-PKL4h1JC_Cj2tRA-3" value="" style="rounded=0;whiteSpace=wrap;html=1;" vertex="1" parent="1">
          <mxGeometry x="50" y="265" width="160" height="230" as="geometry" />
        </mxCell>
        <mxCell id="W48W-PKL4h1JC_Cj2tRA-4" value="Kubernetes" style="text;strokeColor=none;fillColor=none;html=1;align=center;verticalAlign=middle;whiteSpace=wrap;rounded=0;fontSize=16;" vertex="1" parent="1">
          <mxGeometry x="100" y="265" width="60" height="30" as="geometry" />
        </mxCell>
        <mxCell id="W48W-PKL4h1JC_Cj2tRA-9" style="edgeStyle=none;curved=1;rounded=0;orthogonalLoop=1;jettySize=auto;html=1;exitX=1;exitY=0.25;exitDx=0;exitDy=0;fontSize=12;startSize=8;endSize=8;entryX=0;entryY=0.5;entryDx=0;entryDy=0;" edge="1" parent="1" source="W48W-PKL4h1JC_Cj2tRA-5" target="W48W-PKL4h1JC_Cj2tRA-12">
          <mxGeometry relative="1" as="geometry">
            <mxPoint x="340" y="255" as="targetPoint" />
          </mxGeometry>
        </mxCell>
        <mxCell id="W48W-PKL4h1JC_Cj2tRA-5" value="" style="rounded=0;whiteSpace=wrap;html=1;" vertex="1" parent="1">
          <mxGeometry x="85" y="355" width="90" height="50" as="geometry" />
        </mxCell>
        <mxCell id="W48W-PKL4h1JC_Cj2tRA-6" value="app.py" style="text;strokeColor=none;fillColor=none;html=1;align=center;verticalAlign=middle;whiteSpace=wrap;rounded=0;fontSize=16;" vertex="1" parent="1">
          <mxGeometry x="100" y="365" width="60" height="30" as="geometry" />
        </mxCell>
        <mxCell id="W48W-PKL4h1JC_Cj2tRA-11" style="edgeStyle=none;curved=1;rounded=0;orthogonalLoop=1;jettySize=auto;html=1;exitX=1;exitY=0.75;exitDx=0;exitDy=0;fontSize=12;startSize=8;endSize=8;entryX=0;entryY=0.5;entryDx=0;entryDy=0;" edge="1" parent="1" source="W48W-PKL4h1JC_Cj2tRA-5" target="W48W-PKL4h1JC_Cj2tRA-14">
          <mxGeometry relative="1" as="geometry">
            <mxPoint x="350" y="445" as="targetPoint" />
            <mxPoint x="205" y="370" as="sourcePoint" />
          </mxGeometry>
        </mxCell>
        <mxCell id="W48W-PKL4h1JC_Cj2tRA-17" style="edgeStyle=none;curved=1;rounded=0;orthogonalLoop=1;jettySize=auto;html=1;fontSize=12;startSize=8;endSize=8;entryX=0;entryY=0.5;entryDx=0;entryDy=0;exitX=1;exitY=0.5;exitDx=0;exitDy=0;" edge="1" parent="1" source="W48W-PKL4h1JC_Cj2tRA-12" target="W48W-PKL4h1JC_Cj2tRA-19">
          <mxGeometry relative="1" as="geometry">
            <mxPoint x="640" y="355" as="targetPoint" />
          </mxGeometry>
        </mxCell>
        <mxCell id="W48W-PKL4h1JC_Cj2tRA-12" value="Logs" style="rounded=0;whiteSpace=wrap;html=1;" vertex="1" parent="1">
          <mxGeometry x="350" y="220" width="130" height="125" as="geometry" />
        </mxCell>
        <mxCell id="W48W-PKL4h1JC_Cj2tRA-18" style="edgeStyle=none;curved=1;rounded=0;orthogonalLoop=1;jettySize=auto;html=1;fontSize=12;startSize=8;endSize=8;entryX=0;entryY=0.5;entryDx=0;entryDy=0;exitX=1;exitY=0.5;exitDx=0;exitDy=0;" edge="1" parent="1" source="W48W-PKL4h1JC_Cj2tRA-14" target="W48W-PKL4h1JC_Cj2tRA-19">
          <mxGeometry relative="1" as="geometry">
            <mxPoint x="630" y="395" as="targetPoint" />
            <mxPoint x="480" y="513" as="sourcePoint" />
          </mxGeometry>
        </mxCell>
        <mxCell id="W48W-PKL4h1JC_Cj2tRA-14" value="Metricas" style="rounded=0;whiteSpace=wrap;html=1;" vertex="1" parent="1">
          <mxGeometry x="350" y="415" width="130" height="130" as="geometry" />
        </mxCell>
        <mxCell id="W48W-PKL4h1JC_Cj2tRA-16" value="Grafana Loki" style="text;strokeColor=none;fillColor=none;html=1;align=center;verticalAlign=middle;whiteSpace=wrap;rounded=0;fontSize=16;" vertex="1" parent="1">
          <mxGeometry x="360" y="220" width="110" height="30" as="geometry" />
        </mxCell>
        <mxCell id="W48W-PKL4h1JC_Cj2tRA-19" value="Metricas, logs y dashboards" style="rounded=0;whiteSpace=wrap;html=1;" vertex="1" parent="1">
          <mxGeometry x="640" y="265" width="160" height="230" as="geometry" />
        </mxCell>
        <mxCell id="W48W-PKL4h1JC_Cj2tRA-20" value="Grafana" style="text;strokeColor=none;fillColor=none;html=1;align=center;verticalAlign=middle;whiteSpace=wrap;rounded=0;fontSize=16;" vertex="1" parent="1">
          <mxGeometry x="690" y="295" width="60" height="30" as="geometry" />
        </mxCell>
        <mxCell id="W48W-PKL4h1JC_Cj2tRA-21" value="Prometheus" style="text;strokeColor=none;fillColor=none;html=1;align=center;verticalAlign=middle;whiteSpace=wrap;rounded=0;fontSize=16;" vertex="1" parent="1">
          <mxGeometry x="385" y="425" width="60" height="30" as="geometry" />
        </mxCell>
      </root>
    </mxGraphModel>
  </diagram>
</mxfile>
